#!OML:ASF X:\für Bonn\!DataBase\2005_08_11_Bastian_Final\c3d\Bastian.ASF
:FULLY-SPECIFIED
:DEGREES
176
root -22.356 17.6204 -0.00246035 70.1177 -84.0212 -79.9164
lowerback 4.09559 3.24724 5.14292
upperback 5.96682 4.31123 -2.50342
thorax 4.50471 2.38063 -5.48227
lowerneck -1.40387 -9.13822 2.01676
upperneck 14.7747 -14.6582 10.7617
head 5.38692 -6.68571 2.19567
rclavicle -9.93923e-015 1.74931e-014
rhumerus 49.4367 -3.17257 -34.1588
rradius 53.7519
rwrist -13.7818
rhand -16.8264 -4.71763
rfingers 7.12502
rthumb 9.40281 -34.4879
lclavicle -9.93923e-015 1.74931e-014
lhumerus -22.6969 -8.41973 84.2887
lradius 13.8663
lwrist 11.5286
lhand -10.2486 -7.68455
lfingers 7.12502
lthumb 15.7443 21.6951
rfemur 0.851115 2.91224 24.4271
rtibia 28.0256
rfoot -9.84307 -14.5164
rtoes -9.51938
lfemur 3.45197 3.86206 -14.4866
ltibia 22.5159
lfoot -9.47585 -4.02169
ltoes -16.6243
177
root -22.3577 17.6184 0.0113777 71.7483 -84.0244 -81.5677
lowerback 3.99835 3.12068 5.04511
upperback 5.95961 4.13524 -2.39449
thorax 4.5091 2.28538 -5.31
lowerneck -0.844558 -9.17668 2.01008
upperneck 14.7147 -14.7006 10.8486
head 5.28276 -6.73402 2.25296
rclavicle 3.8763e-015 -9.54166e-015
rhumerus 48.5398 -2.62393 -33.9079
rradius 55.9697
rwrist -13.8801
rhand -16.7119 -4.53037
rfingers 7.12502
rthumb 9.51332 -34.2956
lclavicle 3.8763e-015 -9.54166e-015
lhumerus -22.9203 -8.34287 84.4381
lradius 13.8041
lwrist 11.4891
lhand -10.293 -7.68608
lfingers 7.12502
lthumb 15.7014 21.6969
rfemur 0.854012 2.97852 24.4176
rtibia 28.0327
rfoot -9.81819 -14.4148
rtoes -9.69184
lfemur 3.49268 3.98611 -14.4725
ltibia 22.5385
lfoot -9.5204 -4.01955
ltoes -16.3719
178
root -22.3598 17.6178 0.0255429 73.4588 -84.0681 -83.3031
lowerback 3.89795 2.99508 4.90011
upperback 5.96367 3.95931 -2.28673
thorax 4.52484 2.18843 -5.11229
lowerneck -0.314181 -9.20871 1.96039
upperneck 14.6523 -14.7385 10.9661
head 5.18799 -6.77967 2.32477
rclavicle -2.3556e-014 4.6118e-014
rhumerus 47.6382 -2.07924 -33.7358
rradius 58.1669
rwrist -13.805
rhand -16.5463 -4.3051
rfingers 7.12502
rthumb 9.67313 -34.063
lclavicle -2.3556e-014 4.6118e-014
lhumerus -23.1394 -8.29488 84.6101
lradius 13.7569
lwrist 11.5082
lhand -10.3128 -7.67013
lfingers 7.12502
lthumb 15.6824 21.7143
rfemur 0.860034 3.05794 24.3598
rtibia 28.0398
rfoot -9.80327 -14.3067
rtoes -9.68624
lfemur 3.54311 4.10961 -14.5106
ltibia 22.5594
lfoot -9.55956 -3.971
ltoes -16.0831
179
root -22.362 17.6156 0.0399987 75.1609 -84.0664 -85.024
lowerback 3.78413 2.85005 4.79314
upperback 5.97332 3.75707 -2.16606
thorax 4.55455 2.08021 -4.92242
lowerneck 0.200081 -9.21921 1.88035
upperneck 14.5563 -14.748 11.1228
head 5.08911 -6.81213 2.41451
rclavicle 4.52235e-014 9.54166e-015
rhumerus 46.6889 -1.59544 -33.9399
rradius 60.4368
rwrist -13.4037
rhand -16.2545 -3.94643
rfingers 7.12502
rthumb 9.95468 -33.691
lclavicle 4.52235e-014 9.54166e-015
lhumerus -23.3199 -8.08073 84.7391
lradius 13.624
lwrist 11.3721
lhand -10.3223 -7.70791
lfingers 7.12502
lthumb 15.6733 21.6773
rfemur 0.861544 3.11104 24.3387
rtibia 28.0476
rfoot -9.80676 -14.1871
rtoes -9.89081
lfemur 3.5854 4.26059 -14.502
ltibia 22.5822
lfoot -9.61279 -3.95346
ltoes -15.9308
180
root -22.3642 17.6143 0.0544541 76.9826 -84.0961 -86.8703
lowerback 3.68663 2.72109 4.6653
upperback 5.97545 3.57759 -2.0704
thorax 4.57196 1.98264 -4.74819
lowerneck 0.614528 -9.24458 1.89341
upperneck 14.5424 -14.7865 11.1949
head 5.0221 -6.8506 2.45611
rclavicle -3.66758e-014 3.18055e-015
rhumerus 45.662 -1.08494 -34.1732
rradius 62.6989
rwrist -12.9954
rhand -16.0092 -3.50659
rfingers 7.12502
rthumb 10.1913 -33.2397
lclavicle -3.66758e-014 3.18055e-015
lhumerus -23.5395 -8.00936 84.8886
lradius 13.549
lwrist 11.3739
lhand -10.317 -7.66374
lfingers 7.12502
lthumb 15.6783 21.7211
rfemur 0.863021 3.16454 24.2805
rtibia 28.0585
rfoot -9.766 -14.0565
rtoes -10.1459
lfemur 3.63919 4.36987 -14.5417
ltibia 22.5992
lfoot -9.6641 -3.90132
ltoes -15.6607
181
root -22.3668 17.612 0.0692805 78.8413 -84.0866 -88.7576
lowerback 3.57461 2.57728 4.55248
upperback 5.99711 3.37628 -1.94112
thorax 4.61598 1.87477 -4.54678
lowerneck 0.983801 -9.25107 1.83021
upperneck 14.5175 -14.8033 11.309
head 4.96625 -6.87835 2.52055
rclavicle 1.31198e-014 -4.77083e-015
rhumerus 44.6665 -0.546657 -34.3904
rradius 64.9461
rwrist -12.5902
rhand -15.7761 -3.02195
rfingers 7.12502
rthumb 10.4162 -32.7439
lclavicle 1.31198e-014 -4.77083e-015
lhumerus -23.7288 -7.82901 85.0486
lradius 13.422
lwrist 11.2778
lhand -10.3351 -7.70312
lfingers 7.12502
lthumb 15.6609 21.683
rfemur 0.870402 3.22247 24.2549
rtibia 28.0711
rfoot -9.78208 -13.9284
rtoes -10.2769
lfemur 3.69273 4.48633 -14.5432
ltibia 22.6203
lfoot -9.70484 -3.84535
ltoes -15.2861
182
root -22.3691 17.611 0.0832997 80.7656 -84.0852 -90.7122
lowerback 3.48649 2.43571 4.41141
upperback 6.00566 3.17911 -1.81177
thorax 4.63303 1.76684 -4.33127
lowerneck 1.33139 -9.26552 1.82652
upperneck 14.5203 -14.8278 11.3566
head 4.91438 -6.90806 2.55417
rclavicle 9.93923e-016 -7.95139e-015
rhumerus 43.6056 0.050658 -34.58
rradius 67.2089
rwrist -12.2103
rhand -15.2672 -2.49682
rfingers 7.12502
rthumb 10.9071 -32.1935
lclavicle 9.93923e-016 -7.95139e-015
lhumerus -23.9386 -7.70439 85.2222
lradius 13.2889
lwrist 11.2692
lhand -10.3301 -7.74343
lfingers 7.12502
lthumb 15.6658 21.6423
rfemur 0.883261 3.30435 24.2235
rtibia 28.0831
rfoot -9.77926 -13.8097
rtoes -10.3904
lfemur 3.75301 4.6217 -14.5516
ltibia 22.6388
lfoot -9.7448 -3.8163
ltoes -15.0654
183
root -22.3707 17.609 0.0979907 82.6138 -84.0975 -92.5835
lowerback 3.38665 2.2825 4.23662
upperback 6.02029 2.96526 -1.6691
thorax 4.66041 1.64896 -4.08301
lowerneck 1.64998 -9.28084 1.79996
upperneck 14.5367 -14.8559 11.3987
head 4.87296 -6.93877 2.58747
rclavicle 2.78299e-014 -7.95139e-015
rhumerus 42.5376 0.715208 -34.7605
rradius 69.5166
rwrist -11.8291
rhand -14.5674 -2.02237
rfingers 7.12502
rthumb 11.5819 -31.6823
lclavicle 2.78299e-014 -7.95139e-015
lhumerus -24.1077 -7.5122 85.4132
lradius 13.0982
lwrist 11.1887
lhand -10.3099 -7.79014
lfingers 7.12502
lthumb 15.6852 21.5941
rfemur 0.879292 3.37884 24.1642
rtibia 28.0957
rfoot -9.77837 -13.689
rtoes -10.4491
lfemur 3.79957 4.73137 -14.5934
ltibia 22.6598
lfoot -9.79969 -3.75062
ltoes -14.8159
184
root -22.3734 17.608 0.113159 84.5327 -84.0629 -94.5185
lowerback 3.28037 2.12671 4.12352
upperback 6.02959 2.74859 -1.5291
thorax 4.69205 1.53268 -3.87264
lowerneck 1.93295 -9.29896 1.83885
upperneck 14.5814 -14.8895 11.3974
head 4.83927 -6.96845 2.59521
rclavicle -2.93207e-014 2.70347e-014
rhumerus 41.428 1.45256 -34.9215
rradius 71.8077
rwrist -11.4306
rhand -13.9584 -1.54764
rfingers 7.12502
rthumb 12.1692 -31.1737
lclavicle -2.93207e-014 2.70347e-014
lhumerus -24.2617 -7.21803 85.5501
lradius 12.8597
lwrist 10.9332
lhand -10.2789 -7.80903
lfingers 7.12502
lthumb 15.7151 21.5729
rfemur 0.870377 3.44628 24.1459
rtibia 28.1114
rfoot -9.77198 -13.5581
rtoes -10.6677
lfemur 3.84717 4.84509 -14.5904
ltibia 22.6754
lfoot -9.84125 -3.69975
ltoes -14.4056
185
root -22.3752 17.6061 0.12777 86.5223 -84.0313 -96.527
lowerback 3.18609 1.96089 3.97006
upperback 6.04317 2.51787 -1.37133
thorax 4.71901 1.40684 -3.62225
lowerneck 2.20155 -9.30904 1.83862
upperneck 14.6149 -14.9105 11.4024
head 4.8068 -6.9932 2.61075
rclavicle -5.86415e-015 9.54166e-015
rhumerus 40.3139 2.39871 -34.9905
rradius 74.1685
rwrist -11.5835
rhand -13.7372 -1.16051
rfingers 7.12502
rthumb 12.3825 -30.7738
lclavicle -5.86415e-015 9.54166e-015
lhumerus -24.4054 -6.94578 85.7202
lradius 12.6142
lwrist 10.7429
lhand -10.2327 -7.7677
lfingers 7.12502
lthumb 15.7595 21.6107
rfemur 0.854547 3.53794 24.1236
rtibia 28.1344
rfoot -9.7738 -13.4439
rtoes -10.8389
lfemur 3.89484 5.00315 -14.5861
ltibia 22.6833
lfoot -9.8699 -3.66911
ltoes -14.0945
186
root -22.3765 17.6045 0.142419 88.2528 -84.0012 -98.2862
lowerback 3.10747 1.79081 3.82621
upperback 6.06248 2.28199 -1.22549
thorax 4.74657 1.2791 -3.39075
lowerneck 2.45208 -9.32083 1.82412
upperneck 14.6644 -14.9434 11.4365
head 4.78621 -7.02194 2.63509
rclavicle 3.37934e-015 1.27222e-014
rhumerus 39.1804 3.47338 -35.0637
rradius 76.4371
rwrist -11.9934
rhand -13.795 -0.751353
rfingers 7.12502
rthumb 12.3267 -30.368
lclavicle 3.37934e-015 1.27222e-014
lhumerus -24.5165 -6.59552 85.8506
lradius 12.3479
lwrist 10.4389
lhand -10.1688 -7.70052
lfingers 7.12502
lthumb 15.8211 21.673
rfemur 0.851964 3.61763 24.0948
rtibia 28.155
rfoot -9.7799 -13.3391
rtoes -11.0081
lfemur 3.94776 5.11405 -14.5977
ltibia 22.6962
lfoot -9.90119 -3.63174
ltoes -13.7881
